<svg xmlns="http://www.w3.org/2000/svg" viewBox="3068 1762 122.526 158.6"><defs><style>.a{fill:#006dff;}.b{fill:#333f4f;}</style></defs><g transform="translate(3015.344 1762)"><path class="a" d="M181.239,243.307V232.05a8.05,8.05,0,1,0-16.1,0v10.164a49.42,49.42,0,0,1-12.706,33.112l-11.3,12.553a2.569,2.569,0,1,0,3.819,3.437l11.3-12.553a54.553,54.553,0,0,0,14.025-36.55V232.05a2.912,2.912,0,1,1,5.823,0v11.258a60.337,60.337,0,0,1-15.723,40.67l-11.013,12.114a2.569,2.569,0,1,0,3.8,3.456l11.012-12.114A65.465,65.465,0,0,0,181.239,243.307Z" transform="translate(-57.737 -147.269)"/><path class="a" d="M182.831,211.011a19.011,19.011,0,1,0-38.023,0v10.164a38.476,38.476,0,0,1-9.892,25.78l-8.032,8.924a2.569,2.569,0,1,0,3.819,3.437l8.032-8.924a43.607,43.607,0,0,0,11.212-29.217V211.011a13.873,13.873,0,1,1,27.746,0v11.258a71.276,71.276,0,0,1-18.574,48.043l-9.292,10.221a2.569,2.569,0,1,0,3.8,3.456l9.292-10.221a76.405,76.405,0,0,0,19.91-51.5Z" transform="translate(-48.368 -126.231)"/><path class="a" d="M179.69,189.973a29.973,29.973,0,1,0-59.946,0v10.164a27.531,27.531,0,0,1-7.079,18.447l-7.232,8.036a2.569,2.569,0,1,0,3.819,3.437l7.232-8.035a32.662,32.662,0,0,0,8.4-21.884V189.973a24.835,24.835,0,0,1,49.67,0v11.258a82.214,82.214,0,0,1-21.425,55.416l-2.572,2.829a2.569,2.569,0,1,0,3.8,3.456l2.571-2.829a87.343,87.343,0,0,0,22.761-58.873V189.973Z" transform="translate(-34.265 -105.192)"/><path class="b" d="M116.476,169.684a2.569,2.569,0,0,0,5.138,0,35.856,35.856,0,0,1,30.68-35.432,2.569,2.569,0,1,0-.731-5.086,40.994,40.994,0,0,0-35.088,40.518Z" transform="translate(-41.958 -84.904)"/><path class="b" d="M99.818,272.241a2.569,2.569,0,0,0-5.138,0,16.586,16.586,0,0,1-4.264,11.113L83.982,290.5A2.569,2.569,0,0,0,87.8,293.94l6.433-7.148A21.718,21.718,0,0,0,99.818,272.241Z" transform="translate(-20.162 -177.296)"/><path class="b" d="M327.656,343.962a2.571,2.571,0,0,0-3.136,1.835,93.3,93.3,0,0,1-3.508,10.707,2.569,2.569,0,1,0,4.777,1.893,98.516,98.516,0,0,0,3.7-11.3A2.57,2.57,0,0,0,327.656,343.962Z" transform="translate(-176.312 -226.083)"/><path class="b" d="M307.563,157.368a2.569,2.569,0,1,0-3.435,3.821,35.859,35.859,0,0,1,11.891,26.621v11.258a94.084,94.084,0,0,1-.876,12.8,2.569,2.569,0,1,0,5.09.7,99.253,99.253,0,0,0,.924-13.5V187.809A41,41,0,0,0,307.563,157.368Z" transform="translate(-164.771 -103.028)"/><path class="b" d="M256.894,137.339A2.569,2.569,0,0,0,259.1,132.7a40.6,40.6,0,0,0-11.693-3.534,2.569,2.569,0,1,0-.731,5.086A35.48,35.48,0,0,1,256.894,137.339Z" transform="translate(-126.111 -84.903)"/><path class="b" d="M225.769,96c-.961,0-1.933.027-2.89.079a2.569,2.569,0,1,0,.283,5.13c.863-.048,1.74-.072,2.607-.072A46.811,46.811,0,0,1,272.527,147.9v11.258a2.569,2.569,0,1,0,5.138,0V147.9A51.955,51.955,0,0,0,225.769,96Z" transform="translate(-110.317 -63.115)"/><path class="b" d="M149.036,113.471a2.559,2.559,0,0,0,1.464-.46,46.486,46.486,0,0,1,13.953-6.6,2.569,2.569,0,0,0-1.394-4.946,51.616,51.616,0,0,0-15.492,7.323,2.57,2.57,0,0,0,1.469,4.679Z" transform="translate(-61.675 -66.647)"/><path class="b" d="M79.485,187.836V177.672a46.555,46.555,0,0,1,12.745-32.051,2.569,2.569,0,0,0-3.739-3.525,51.675,51.675,0,0,0-14.144,35.575v10.164a5.641,5.641,0,0,1-1.45,3.78l-3.168,3.52a2.569,2.569,0,0,0,3.819,3.438l3.168-3.52A10.775,10.775,0,0,0,79.485,187.836Z" transform="translate(-10.79 -92.891)"/><path class="b" d="M375.843,144.352a62.51,62.51,0,0,0-13.31-22.486,2.569,2.569,0,1,0-3.784,3.477,57.4,57.4,0,0,1,12.224,20.647,2.569,2.569,0,0,0,4.87-1.638Z" transform="translate(-200.796 -79.575)"/><path class="b" d="M288.719,73.555a2.569,2.569,0,1,0-1.663,4.861,57.551,57.551,0,0,1,15.809,8.348,2.569,2.569,0,0,0,3.073-4.118A62.693,62.693,0,0,0,288.719,73.555Z" transform="translate(-152.963 -48.267)"/><path class="b" d="M75.534,85.206a57.43,57.43,0,0,1,39.919-16.068,58.255,58.255,0,0,1,8.288.593,2.569,2.569,0,0,0,.734-5.085A63.428,63.428,0,0,0,115.452,64a62.932,62.932,0,0,0-62.793,60,2.569,2.569,0,0,0,2.451,2.682c.039,0,.078,0,.117,0a2.569,2.569,0,0,0,2.565-2.454A57.432,57.432,0,0,1,75.534,85.206Z" transform="translate(0 -42.077)"/><path class="b" d="M199.522,32a73.928,73.928,0,0,0-17.016,1.979,2.569,2.569,0,1,0,1.184,5,68.821,68.821,0,0,1,15.832-1.841,68.1,68.1,0,0,1,49.515,21.134,2.569,2.569,0,1,0,3.706-3.559A73.62,73.62,0,0,0,199.522,32Z" transform="translate(-84.07 -21.038)"/><path class="b" d="M65.616,74.357a2.569,2.569,0,0,0,3.607-.439A69.125,69.125,0,0,1,97.1,52.7a2.569,2.569,0,0,0-1.968-4.746A74.274,74.274,0,0,0,65.177,70.75,2.569,2.569,0,0,0,65.616,74.357Z" transform="translate(-7.873 -31.4)"/><path class="b" d="M127.048,13.265a2.554,2.554,0,0,0,1.115-.256A78.724,78.724,0,0,1,162.67,5.138a79.74,79.74,0,0,1,18.635,2.2,2.569,2.569,0,1,0,1.2-5A84.882,84.882,0,0,0,162.67,0a83.82,83.82,0,0,0-36.741,8.382,2.57,2.57,0,0,0,1.119,4.883Z" transform="translate(-47.218)"/><path class="b" d="M318.616,21.87a79.577,79.577,0,0,1,7.792,3.6,2.569,2.569,0,0,0,2.406-4.54,84.761,84.761,0,0,0-8.3-3.837,2.569,2.569,0,1,0-1.9,4.773Z" transform="translate(-173.791 -11.12)"/></g></svg>