<svg xmlns="http://www.w3.org/2000/svg" viewBox="3411 1762 129.29 163.254"><defs><style>.a{fill:#333f4f;}.b{fill:#006dff;}</style></defs><g transform="translate(3411.006 1762)"><path class="a" d="M156.12,200.914a3.39,3.39,0,1,1,0-6.78A81.374,81.374,0,0,0,199.807,44.112a3.39,3.39,0,1,1,3.646-5.717A88.155,88.155,0,0,1,156.12,200.914Z" transform="translate(-114.982 -37.66)"/><path class="a" d="M67.139,187.4a3.39,3.39,0,1,1,0-6.78A68.327,68.327,0,1,0,31.173,54.178,3.391,3.391,0,0,1,27.6,48.414,75.113,75.113,0,1,1,67.139,187.4Z" transform="translate(-26 -37.18)"/><path class="b" d="M156.12,205.09a3.39,3.39,0,1,1,0-6.78,55.29,55.29,0,0,0,0-110.58,3.39,3.39,0,1,1,0-6.78,62.07,62.07,0,0,1,0,124.14Z" transform="translate(-114.982 -67.911)"/><path class="b" d="M107.372,222.776a3.39,3.39,0,1,1,0-6.78,42.246,42.246,0,1,0,0-84.493,41.8,41.8,0,0,0-19.143,4.573,3.391,3.391,0,1,1-3.077-6.044,48.53,48.53,0,0,1,22.22-5.312,49.028,49.028,0,1,1,0,98.056Z" transform="translate(-66.234 -98.642)"/><path class="b" d="M79.289,240.468a3.39,3.39,0,0,1,0-6.78,29.194,29.194,0,1,0-29.209-29.2,3.39,3.39,0,1,1-6.78,0,35.989,35.989,0,1,1,35.984,35.974Z" transform="translate(-38.151 -129.373)"/></g></svg>