<svg xmlns="http://www.w3.org/2000/svg" viewBox="3735 1762 156 156"><defs><style>.a{fill:#333f4f;}.b{fill:#006dff;}</style></defs><g transform="translate(2378 1195)"><path class="a" d="M133.164,22.836A78.014,78.014,0,0,0,22.836,133.164,78.014,78.014,0,0,0,133.164,22.836ZM78,151.021A73.021,73.021,0,1,1,151.021,78,73.108,73.108,0,0,1,78,151.021Z" transform="translate(1357 567)"/><path class="a" d="M245.032,323.751a.919.919,0,0,0,.3-.033A43.9,43.9,0,0,0,274.9,306.757a2.486,2.486,0,0,0-3.95-3.02,39.184,39.184,0,0,1-26.188,15.036,2.518,2.518,0,0,0-2.191,2.755A2.453,2.453,0,0,0,245.032,323.751Z" transform="translate(1194.947 364.73)"/><path class="a" d="M132.921,303.836a2.486,2.486,0,0,0-3.95,3.02,44.03,44.03,0,0,0,29.574,16.961c.1,0,.2.033.3.033a2.48,2.48,0,0,0,.266-4.946A39.1,39.1,0,0,1,132.921,303.836Z" transform="translate(1271.177 364.663)"/><path class="a" d="M173.921,119.254a2.482,2.482,0,0,0-4.946-.431,55.081,55.081,0,1,1,0-9.526,2.482,2.482,0,1,0,4.946-.431,60.159,60.159,0,1,0,0,10.389Z" transform="translate(1320.923 532)"/><path class="a" d="M323.147,59.849a69.717,69.717,0,0,0-35.415-24.562,2.489,2.489,0,0,0-1.394,4.78,64.1,64.1,0,0,1-.033,122.875,2.489,2.489,0,1,0,1.394,4.78,69.656,69.656,0,0,0,35.415-24.529,69.058,69.058,0,0,0,.033-83.344Z" transform="translate(1166.918 544.818)"/><path class="a" d="M214.976,32.245h.2a66.091,66.091,0,0,1,9.592,0,2.479,2.479,0,0,0,.365-4.946q-2.589-.2-5.178-.2t-5.178.2a2.476,2.476,0,0,0,.2,4.946Z" transform="translate(1215.045 539.9)"/><path class="b" d="M215.977,156.2h-5.311a2.663,2.663,0,0,1-2.655-2.655H202.7a7.989,7.989,0,0,0,7.966,7.966v2.655h5.311v-2.655a7.966,7.966,0,1,0,0-15.932h-5.311a2.655,2.655,0,0,1,0-5.311h5.311a2.663,2.663,0,0,1,2.655,2.655h5.311a7.989,7.989,0,0,0-7.966-7.966V132.3h-5.311v2.655a7.966,7.966,0,1,0,0,15.932h5.311a2.655,2.655,0,0,1,0,5.311Z" transform="translate(1221.579 482.7)"/><path class="b" d="M210.5,153.44a23.6,23.6,0,0,0-2.556-10.588A23.572,23.572,0,0,0,210.5,132.2a23.9,23.9,0,1,0-47.8,0,23.468,23.468,0,0,0,2.556,10.654A23.866,23.866,0,1,0,210.5,153.44Zm-23.9-39.83A18.587,18.587,0,1,1,168.011,132.2,18.6,18.6,0,0,1,186.6,113.611Zm-18.587,39.83a18.453,18.453,0,0,1,.8-5.344h.033a23.877,23.877,0,0,0,17.791,8h2.655a2.655,2.655,0,1,1,0,5.311h-5.311a2.663,2.663,0,0,1-2.655-2.655H176.01a7.989,7.989,0,0,0,7.966,7.966v2.655h5.311v-2.655a7.989,7.989,0,0,0,7.966-7.966,8.154,8.154,0,0,0-1.394-4.514,24.329,24.329,0,0,0,8.563-6.14h.033a18.066,18.066,0,0,1,.8,5.311,18.621,18.621,0,0,1-37.241.033Z" transform="translate(1248.302 498.7)"/></g></svg>